<mxfile host="app.diagrams.net" agent="Mozilla/5.0 (Windows NT 10.0; Win64; x64) AppleWebKit/537.36 (KHTML, like Gecko) Chrome/141.0.0.0 Safari/537.36" version="28.2.8">
  <diagram name="Page-1" id="XEiT1kLDCRGGdZglAhm5">
    <mxGraphModel dx="2276" dy="2951" grid="1" gridSize="10" guides="1" tooltips="1" connect="1" arrows="1" fold="1" page="1" pageScale="1" pageWidth="850" pageHeight="1100" math="0" shadow="0">
      <root>
        <mxCell id="0" />
        <mxCell id="1" parent="0" />
        <mxCell id="B2Q1mEj035JKYRua9Jhf-1" value="" style="rounded=0;whiteSpace=wrap;html=1;dashed=1;" parent="1" vertex="1">
          <mxGeometry x="1650" y="-1790" width="1170" height="960" as="geometry" />
        </mxCell>
        <mxCell id="C_mojfmz8NE7oDex5nDW-132" value="" style="rounded=0;whiteSpace=wrap;html=1;dashed=1;" parent="1" vertex="1">
          <mxGeometry x="-48" y="-1780" width="1170" height="960" as="geometry" />
        </mxCell>
        <mxCell id="C_mojfmz8NE7oDex5nDW-30" style="edgeStyle=orthogonalEdgeStyle;rounded=0;orthogonalLoop=1;jettySize=auto;html=1;exitX=0.5;exitY=0.5;exitDx=0;exitDy=0;exitPerimeter=0;fontSize=12;" parent="1" source="C_mojfmz8NE7oDex5nDW-32" target="C_mojfmz8NE7oDex5nDW-39" edge="1">
          <mxGeometry relative="1" as="geometry" />
        </mxCell>
        <mxCell id="C_mojfmz8NE7oDex5nDW-31" value="&lt;font&gt;GET: weather/32.0853,34.7818?date=2025-10-22&lt;/font&gt;" style="edgeLabel;html=1;align=center;verticalAlign=middle;resizable=0;points=[];fontSize=12;" parent="C_mojfmz8NE7oDex5nDW-30" vertex="1" connectable="0">
          <mxGeometry x="-0.3497" relative="1" as="geometry">
            <mxPoint x="73" as="offset" />
          </mxGeometry>
        </mxCell>
        <mxCell id="C_mojfmz8NE7oDex5nDW-32" value="User" style="shape=umlActor;verticalLabelPosition=bottom;verticalAlign=top;html=1;outlineConnect=0;fontSize=12;" parent="1" vertex="1">
          <mxGeometry x="-740" y="-620" width="30" height="60" as="geometry" />
        </mxCell>
        <mxCell id="C_mojfmz8NE7oDex5nDW-100" style="edgeStyle=orthogonalEdgeStyle;rounded=0;orthogonalLoop=1;jettySize=auto;html=1;exitX=0;exitY=0.5;exitDx=0;exitDy=0;entryX=0.5;entryY=1;entryDx=0;entryDy=0;fontSize=12;" parent="1" source="C_mojfmz8NE7oDex5nDW-33" target="C_mojfmz8NE7oDex5nDW-58" edge="1">
          <mxGeometry relative="1" as="geometry" />
        </mxCell>
        <mxCell id="C_mojfmz8NE7oDex5nDW-101" value="Return&amp;nbsp;&lt;b&gt;WeatherInfo&lt;/b&gt;" style="edgeLabel;html=1;align=center;verticalAlign=middle;resizable=0;points=[];fontSize=12;" parent="C_mojfmz8NE7oDex5nDW-100" vertex="1" connectable="0">
          <mxGeometry x="0.3775" y="1" relative="1" as="geometry">
            <mxPoint x="1" y="-25" as="offset" />
          </mxGeometry>
        </mxCell>
        <mxCell id="C_mojfmz8NE7oDex5nDW-33" value="&lt;font&gt;High-traffic&lt;br&gt;&amp;nbsp;service&lt;/font&gt;" style="ellipse;whiteSpace=wrap;html=1;fontSize=12;" parent="1" vertex="1">
          <mxGeometry x="1080" y="-690" width="250" height="250" as="geometry" />
        </mxCell>
        <mxCell id="C_mojfmz8NE7oDex5nDW-36" value="Memory (uses Hash + LinkedList for LRU)" style="rounded=0;whiteSpace=wrap;html=1;fontSize=12;" parent="1" vertex="1">
          <mxGeometry x="483" y="-1690" width="260" height="60" as="geometry" />
        </mxCell>
        <mxCell id="C_mojfmz8NE7oDex5nDW-37" style="edgeStyle=orthogonalEdgeStyle;rounded=0;orthogonalLoop=1;jettySize=auto;html=1;entryX=0.75;entryY=1;entryDx=0;entryDy=0;fontSize=12;" parent="1" source="C_mojfmz8NE7oDex5nDW-39" target="C_mojfmz8NE7oDex5nDW-51" edge="1">
          <mxGeometry relative="1" as="geometry">
            <mxPoint x="80" y="-590" as="targetPoint" />
          </mxGeometry>
        </mxCell>
        <mxCell id="C_mojfmz8NE7oDex5nDW-38" value="&lt;span&gt;WeatherRequestDTO&lt;/span&gt;" style="edgeLabel;html=1;align=center;verticalAlign=middle;resizable=0;points=[];fontSize=12;" parent="C_mojfmz8NE7oDex5nDW-37" vertex="1" connectable="0">
          <mxGeometry x="-0.4604" y="1" relative="1" as="geometry">
            <mxPoint x="50" y="1" as="offset" />
          </mxGeometry>
        </mxCell>
        <mxCell id="C_mojfmz8NE7oDex5nDW-39" value="&lt;span style=&quot;text-wrap-mode: wrap;&quot;&gt;API Gateway&lt;/span&gt;" style="outlineConnect=0;dashed=0;verticalLabelPosition=bottom;verticalAlign=top;align=center;html=1;shape=mxgraph.aws3.api_gateway;fillColor=#D9A741;gradientColor=none;fontSize=12;" parent="1" vertex="1">
          <mxGeometry x="-320" y="-636.5" width="76.5" height="93" as="geometry" />
        </mxCell>
        <mxCell id="C_mojfmz8NE7oDex5nDW-40" value="&lt;blockquote style=&quot;margin: 0 0 0 40px; border: none; padding: 0px;&quot;&gt;&lt;div&gt;&amp;nbsp;&amp;nbsp;&lt;/div&gt;&lt;b style=&quot;text-align: center; text-wrap-mode: nowrap;&quot;&gt;&lt;font style=&quot;color: light-dark(rgb(255, 255, 255), rgb(255, 255, 255));&quot;&gt;Cache Entry:&lt;br&gt;{&lt;br&gt;&lt;/font&gt;&lt;/b&gt;&lt;div&gt;&amp;nbsp; &quot;key&quot;: &quot;2025-10-22T15:00:00Z:tel-aviv&quot;,&lt;/div&gt;&lt;div&gt;&amp;nbsp; &quot;value&quot;: { ...&lt;span style=&quot;text-align: center; text-wrap-mode: nowrap;&quot;&gt;&lt;font style=&quot;color: light-dark(rgb(238, 240, 255), rgb(255, 255, 255));&quot;&gt;&lt;b&gt;WeatherInfo&lt;/b&gt;&lt;/font&gt;&lt;/span&gt;... },&lt;/div&gt;&lt;div&gt;&amp;nbsp; &quot;TTL&quot;: 900000,&lt;br&gt;&amp;nbsp; &quot;ExpiredAt&quot;:&amp;nbsp;CreatedAt + TTL&lt;br&gt;}&amp;nbsp;&lt;/div&gt;&lt;/blockquote&gt;" style="shape=note;whiteSpace=wrap;html=1;backgroundOutline=1;darkOpacity=0.05;fillColor=#fa6800;strokeColor=#C73500;fontColor=#000000;align=left;fontSize=12;" parent="1" vertex="1">
          <mxGeometry x="810" y="-1710" width="270" height="120" as="geometry" />
        </mxCell>
        <mxCell id="C_mojfmz8NE7oDex5nDW-44" value="&lt;span&gt;&amp;nbsp;Check by Key &lt;br&gt;if entry exist &lt;br&gt;and not expired&lt;/span&gt;" style="rhombus;whiteSpace=wrap;html=1;fontSize=12;" parent="1" vertex="1">
          <mxGeometry x="660" y="-1180" width="150" height="145" as="geometry" />
        </mxCell>
        <mxCell id="C_mojfmz8NE7oDex5nDW-47" value="&lt;blockquote style=&quot;margin: 0 0 0 40px; border: none; padding: 0px;&quot;&gt;&lt;div&gt;&lt;font&gt;&amp;nbsp;&amp;nbsp;&lt;b style=&quot;background-color: transparent; text-wrap-mode: nowrap; text-align: center;&quot;&gt;WeatherRequestDTO&lt;/b&gt;&lt;/font&gt;&lt;/div&gt;&lt;div&gt;&lt;font&gt;&amp;nbsp;&amp;nbsp;&lt;span style=&quot;background-color: transparent;&quot;&gt;{&lt;/span&gt;&lt;br&gt;&lt;/font&gt;&lt;/div&gt;&lt;div&gt;&lt;font&gt;&amp;nbsp; &quot;latitude&quot;: 32.0853,&lt;/font&gt;&lt;/div&gt;&lt;div&gt;&lt;font&gt;&amp;nbsp; &quot;longitude&quot;: 34.7818,&lt;/font&gt;&lt;/div&gt;&lt;div&gt;&lt;font&gt;&amp;nbsp; &quot;utcDateTime&quot;: &quot;2025-10-22T15:00:00Z&quot;&lt;/font&gt;&lt;/div&gt;&lt;div&gt;&lt;font&gt;&amp;nbsp; }&lt;/font&gt;&lt;/div&gt;&lt;/blockquote&gt;" style="shape=note;whiteSpace=wrap;html=1;backgroundOutline=1;darkOpacity=0.05;fillColor=#fa6800;strokeColor=#C73500;fontColor=#000000;align=left;fontSize=12;" parent="1" vertex="1">
          <mxGeometry x="-20" y="-620" width="270" height="110" as="geometry" />
        </mxCell>
        <mxCell id="C_mojfmz8NE7oDex5nDW-49" style="edgeStyle=orthogonalEdgeStyle;rounded=0;orthogonalLoop=1;jettySize=auto;html=1;exitX=0.75;exitY=0;exitDx=0;exitDy=0;entryX=0;entryY=0.75;entryDx=0;entryDy=0;fontSize=12;" parent="1" source="C_mojfmz8NE7oDex5nDW-51" target="C_mojfmz8NE7oDex5nDW-58" edge="1">
          <mxGeometry relative="1" as="geometry">
            <Array as="points">
              <mxPoint x="-90" y="-789" />
              <mxPoint x="280" y="-789" />
              <mxPoint x="280" y="-914" />
            </Array>
          </mxGeometry>
        </mxCell>
        <mxCell id="C_mojfmz8NE7oDex5nDW-50" value="&lt;span&gt;1) WeatherRequestDTO&lt;/span&gt;" style="edgeLabel;html=1;align=center;verticalAlign=middle;resizable=0;points=[];fontSize=12;" parent="C_mojfmz8NE7oDex5nDW-49" vertex="1" connectable="0">
          <mxGeometry x="-0.1125" y="2" relative="1" as="geometry">
            <mxPoint as="offset" />
          </mxGeometry>
        </mxCell>
        <mxCell id="C_mojfmz8NE7oDex5nDW-51" value="WetherAggregator" style="rounded=1;whiteSpace=wrap;html=1;fontSize=12;" parent="1" vertex="1">
          <mxGeometry x="-180" y="-704" width="120" height="60" as="geometry" />
        </mxCell>
        <mxCell id="C_mojfmz8NE7oDex5nDW-52" style="edgeStyle=orthogonalEdgeStyle;rounded=0;orthogonalLoop=1;jettySize=auto;html=1;entryX=0.5;entryY=0;entryDx=0;entryDy=0;entryPerimeter=0;fontSize=12;" parent="1" source="C_mojfmz8NE7oDex5nDW-51" target="C_mojfmz8NE7oDex5nDW-39" edge="1">
          <mxGeometry relative="1" as="geometry" />
        </mxCell>
        <mxCell id="C_mojfmz8NE7oDex5nDW-53" value="&lt;span&gt;WeatherResponseDTO&lt;/span&gt;" style="edgeLabel;html=1;align=center;verticalAlign=middle;resizable=0;points=[];fontSize=12;" parent="C_mojfmz8NE7oDex5nDW-52" vertex="1" connectable="0">
          <mxGeometry x="0.3184" y="-3" relative="1" as="geometry">
            <mxPoint as="offset" />
          </mxGeometry>
        </mxCell>
        <mxCell id="C_mojfmz8NE7oDex5nDW-56" style="edgeStyle=orthogonalEdgeStyle;rounded=0;orthogonalLoop=1;jettySize=auto;html=1;exitX=0;exitY=0.5;exitDx=0;exitDy=0;fontSize=12;" parent="1" source="C_mojfmz8NE7oDex5nDW-104" target="C_mojfmz8NE7oDex5nDW-51" edge="1">
          <mxGeometry relative="1" as="geometry" />
        </mxCell>
        <mxCell id="C_mojfmz8NE7oDex5nDW-57" value="Return&amp;nbsp;&lt;span&gt;WeatherResponseDTO&lt;/span&gt;" style="edgeLabel;html=1;align=center;verticalAlign=middle;resizable=0;points=[];fontSize=12;" parent="C_mojfmz8NE7oDex5nDW-56" vertex="1" connectable="0">
          <mxGeometry x="0.0021" relative="1" as="geometry">
            <mxPoint as="offset" />
          </mxGeometry>
        </mxCell>
        <mxCell id="C_mojfmz8NE7oDex5nDW-105" style="edgeStyle=orthogonalEdgeStyle;rounded=0;orthogonalLoop=1;jettySize=auto;html=1;exitX=0;exitY=0.5;exitDx=0;exitDy=0;entryX=1;entryY=0.5;entryDx=0;entryDy=0;fontSize=12;" parent="1" source="C_mojfmz8NE7oDex5nDW-58" target="C_mojfmz8NE7oDex5nDW-104" edge="1">
          <mxGeometry relative="1" as="geometry" />
        </mxCell>
        <mxCell id="C_mojfmz8NE7oDex5nDW-106" value="&lt;span&gt;6) Return WeatherInfo&lt;/span&gt;" style="edgeLabel;html=1;align=center;verticalAlign=middle;resizable=0;points=[];fontSize=12;" parent="C_mojfmz8NE7oDex5nDW-105" vertex="1" connectable="0">
          <mxGeometry x="0.3946" y="1" relative="1" as="geometry">
            <mxPoint x="27" y="-1" as="offset" />
          </mxGeometry>
        </mxCell>
        <mxCell id="C_mojfmz8NE7oDex5nDW-189" style="edgeStyle=orthogonalEdgeStyle;rounded=0;orthogonalLoop=1;jettySize=auto;html=1;exitX=0.5;exitY=0;exitDx=0;exitDy=0;entryX=0.5;entryY=1;entryDx=0;entryDy=0;" parent="1" source="C_mojfmz8NE7oDex5nDW-58" target="C_mojfmz8NE7oDex5nDW-109" edge="1">
          <mxGeometry relative="1" as="geometry" />
        </mxCell>
        <mxCell id="C_mojfmz8NE7oDex5nDW-190" value="5) Either Store Cache Entry&lt;br&gt;or update LastAccessd" style="edgeLabel;html=1;align=center;verticalAlign=middle;resizable=0;points=[];" parent="C_mojfmz8NE7oDex5nDW-189" vertex="1" connectable="0">
          <mxGeometry x="0.7663" relative="1" as="geometry">
            <mxPoint y="1" as="offset" />
          </mxGeometry>
        </mxCell>
        <mxCell id="C_mojfmz8NE7oDex5nDW-58" value="CacheService" style="rounded=0;whiteSpace=wrap;html=1;fontSize=12;" parent="1" vertex="1">
          <mxGeometry x="357" y="-959" width="120" height="60" as="geometry" />
        </mxCell>
        <mxCell id="C_mojfmz8NE7oDex5nDW-208" style="edgeStyle=orthogonalEdgeStyle;rounded=0;orthogonalLoop=1;jettySize=auto;html=1;exitX=0.5;exitY=1;exitDx=0;exitDy=0;entryX=0;entryY=0.5;entryDx=0;entryDy=0;" parent="1" source="C_mojfmz8NE7oDex5nDW-61" target="C_mojfmz8NE7oDex5nDW-44" edge="1">
          <mxGeometry relative="1" as="geometry" />
        </mxCell>
        <mxCell id="C_mojfmz8NE7oDex5nDW-209" value="&lt;span style=&quot;font-size: 12px;&quot;&gt;3)&amp;nbsp;Check Cache&lt;/span&gt;" style="edgeLabel;html=1;align=center;verticalAlign=middle;resizable=0;points=[];" parent="C_mojfmz8NE7oDex5nDW-208" vertex="1" connectable="0">
          <mxGeometry x="0.0936" y="-2" relative="1" as="geometry">
            <mxPoint as="offset" />
          </mxGeometry>
        </mxCell>
        <mxCell id="C_mojfmz8NE7oDex5nDW-61" value="Build Cache Key, without TTL" style="rounded=0;whiteSpace=wrap;html=1;fontSize=12;" parent="1" vertex="1">
          <mxGeometry x="477" y="-1260" width="120" height="60" as="geometry" />
        </mxCell>
        <mxCell id="C_mojfmz8NE7oDex5nDW-67" value="&lt;blockquote style=&quot;margin: 0 0 0 40px; border: none; padding: 0px;&quot;&gt;&lt;div&gt;&lt;font&gt;&amp;nbsp;&amp;nbsp;&lt;/font&gt;&lt;b style=&quot;background-color: transparent; text-wrap-mode: nowrap; text-align: center; color: light-dark(rgb(0, 0, 0), rgb(237, 237, 237));&quot;&gt;WeatherResponseDTO&lt;/b&gt;&lt;/div&gt;&lt;div&gt;&lt;font&gt;&amp;nbsp;&amp;nbsp;&lt;span style=&quot;background-color: transparent;&quot;&gt;{&lt;/span&gt;&lt;br&gt;&lt;/font&gt;&lt;/div&gt;&lt;div&gt;&lt;font&gt;&amp;nbsp;&lt;/font&gt;&lt;span style=&quot;background-color: transparent;&quot;&gt;&amp;nbsp;&quot;location&quot;: &quot;Tel Aviv&quot;,&lt;/span&gt;&lt;/div&gt;&lt;div&gt;&amp;nbsp; &quot;utcDateTime&quot;: &quot;2025-10-22T15:00:00Z&quot;,&lt;/div&gt;&lt;div&gt;&amp;nbsp; &quot;temperatureC&quot;: 27.5,&lt;/div&gt;&lt;div&gt;&amp;nbsp; &quot;humidity&quot;: 60,&lt;/div&gt;&lt;div&gt;&amp;nbsp; &quot;description&quot;: &quot;Sunny&quot;&lt;/div&gt;&lt;div&gt;&lt;font&gt;&amp;nbsp; }&lt;/font&gt;&lt;/div&gt;&lt;/blockquote&gt;" style="shape=note;whiteSpace=wrap;html=1;backgroundOutline=1;darkOpacity=0.05;fillColor=#fa6800;strokeColor=#C73500;fontColor=#000000;align=left;fontSize=12;" parent="1" vertex="1">
          <mxGeometry x="-540" y="-960" width="270" height="140" as="geometry" />
        </mxCell>
        <mxCell id="C_mojfmz8NE7oDex5nDW-75" style="edgeStyle=orthogonalEdgeStyle;rounded=0;orthogonalLoop=1;jettySize=auto;html=1;fontSize=12;exitX=0.5;exitY=0;exitDx=0;exitDy=0;" parent="1" source="C_mojfmz8NE7oDex5nDW-44" edge="1">
          <mxGeometry relative="1" as="geometry">
            <mxPoint x="706" y="-1190" as="sourcePoint" />
            <mxPoint x="735" y="-1630" as="targetPoint" />
            <Array as="points" />
          </mxGeometry>
        </mxCell>
        <mxCell id="C_mojfmz8NE7oDex5nDW-95" value="4) Search" style="edgeLabel;html=1;align=center;verticalAlign=middle;resizable=0;points=[];fontSize=12;" parent="C_mojfmz8NE7oDex5nDW-75" vertex="1" connectable="0">
          <mxGeometry x="0.0644" relative="1" as="geometry">
            <mxPoint x="41" y="51" as="offset" />
          </mxGeometry>
        </mxCell>
        <mxCell id="C_mojfmz8NE7oDex5nDW-80" style="edgeStyle=orthogonalEdgeStyle;rounded=0;orthogonalLoop=1;jettySize=auto;html=1;exitX=0.5;exitY=1;exitDx=0;exitDy=0;entryX=0.993;entryY=0.631;entryDx=0;entryDy=0;entryPerimeter=0;fontSize=12;" parent="1" source="C_mojfmz8NE7oDex5nDW-44" target="C_mojfmz8NE7oDex5nDW-58" edge="1">
          <mxGeometry relative="1" as="geometry">
            <mxPoint x="675" y="-1006.5" as="sourcePoint" />
          </mxGeometry>
        </mxCell>
        <mxCell id="C_mojfmz8NE7oDex5nDW-81" value="return cached result -&amp;nbsp;&lt;br&gt;&lt;span&gt;WeatherInfo&lt;/span&gt;" style="edgeLabel;html=1;align=center;verticalAlign=middle;resizable=0;points=[];fontSize=12;" parent="C_mojfmz8NE7oDex5nDW-80" vertex="1" connectable="0">
          <mxGeometry x="0.5729" y="1" relative="1" as="geometry">
            <mxPoint x="45" as="offset" />
          </mxGeometry>
        </mxCell>
        <mxCell id="C_mojfmz8NE7oDex5nDW-84" value="YES - Cache Hit" style="edgeLabel;html=1;align=center;verticalAlign=middle;resizable=0;points=[];fontSize=12;" parent="C_mojfmz8NE7oDex5nDW-80" vertex="1" connectable="0">
          <mxGeometry x="-0.763" y="-1" relative="1" as="geometry">
            <mxPoint as="offset" />
          </mxGeometry>
        </mxCell>
        <mxCell id="C_mojfmz8NE7oDex5nDW-96" style="edgeStyle=orthogonalEdgeStyle;rounded=0;orthogonalLoop=1;jettySize=auto;html=1;exitX=1;exitY=0.5;exitDx=0;exitDy=0;entryX=0.53;entryY=0.002;entryDx=0;entryDy=0;entryPerimeter=0;fontSize=12;" parent="1" source="C_mojfmz8NE7oDex5nDW-44" target="C_mojfmz8NE7oDex5nDW-33" edge="1">
          <mxGeometry relative="1" as="geometry" />
        </mxCell>
        <mxCell id="C_mojfmz8NE7oDex5nDW-98" value="NO - Cache Miss" style="edgeLabel;html=1;align=center;verticalAlign=middle;resizable=0;points=[];fontSize=12;" parent="C_mojfmz8NE7oDex5nDW-96" vertex="1" connectable="0">
          <mxGeometry x="-0.5225" y="2" relative="1" as="geometry">
            <mxPoint x="-106" as="offset" />
          </mxGeometry>
        </mxCell>
        <mxCell id="C_mojfmz8NE7oDex5nDW-99" value="Cache miss or expired -&lt;br&gt;Pass&amp;nbsp;&lt;span&gt;WeatherRequestDTO&lt;/span&gt;" style="edgeLabel;html=1;align=center;verticalAlign=middle;resizable=0;points=[];fontSize=12;" parent="C_mojfmz8NE7oDex5nDW-96" vertex="1" connectable="0">
          <mxGeometry x="-0.2324" y="-2" relative="1" as="geometry">
            <mxPoint x="96" y="85" as="offset" />
          </mxGeometry>
        </mxCell>
        <mxCell id="C_mojfmz8NE7oDex5nDW-104" value="Convert&lt;br&gt;WeatherInfo to&amp;nbsp;&lt;br&gt;&lt;span style=&quot;text-wrap-mode: nowrap;&quot;&gt;WeatherResponseDTO&lt;/span&gt;" style="rounded=0;whiteSpace=wrap;html=1;fontSize=12;" parent="1" vertex="1">
          <mxGeometry x="-20" y="-989" width="150" height="60" as="geometry" />
        </mxCell>
        <mxCell id="C_mojfmz8NE7oDex5nDW-113" value="Hit" style="edgeStyle=orthogonalEdgeStyle;rounded=0;orthogonalLoop=1;jettySize=auto;html=1;exitX=0;exitY=0.5;exitDx=0;exitDy=0;entryX=0.5;entryY=1;entryDx=0;entryDy=0;" parent="1" source="C_mojfmz8NE7oDex5nDW-109" target="C_mojfmz8NE7oDex5nDW-194" edge="1">
          <mxGeometry x="-0.4545" relative="1" as="geometry">
            <mxPoint x="280" y="-1560" as="targetPoint" />
            <Array as="points">
              <mxPoint x="30" y="-1155" />
            </Array>
            <mxPoint as="offset" />
          </mxGeometry>
        </mxCell>
        <mxCell id="C_mojfmz8NE7oDex5nDW-120" value="Miss" style="edgeStyle=orthogonalEdgeStyle;rounded=0;orthogonalLoop=1;jettySize=auto;html=1;exitX=1;exitY=0.5;exitDx=0;exitDy=0;" parent="1" source="C_mojfmz8NE7oDex5nDW-109" target="C_mojfmz8NE7oDex5nDW-191" edge="1">
          <mxGeometry relative="1" as="geometry" />
        </mxCell>
        <mxCell id="C_mojfmz8NE7oDex5nDW-109" value="Hit/Miss?" style="rhombus;whiteSpace=wrap;html=1;fontSize=12;" parent="1" vertex="1">
          <mxGeometry x="140" y="-1200" width="90" height="90" as="geometry" />
        </mxCell>
        <mxCell id="C_mojfmz8NE7oDex5nDW-116" value="&lt;span&gt;&lt;span style=&quot;text-wrap-mode: nowrap;&quot;&gt;Store&lt;/span&gt;&lt;span style=&quot;text-wrap-mode: nowrap;&quot;&gt;&amp;nbsp;&lt;/span&gt;&lt;/span&gt;&lt;span style=&quot;text-wrap-mode: nowrap;&quot;&gt;CacheEntry&lt;br&gt;&lt;/span&gt;&lt;span style=&quot;text-wrap-mode: nowrap;&quot;&gt;in memory (with TTL)&lt;/span&gt;" style="rounded=0;whiteSpace=wrap;html=1;fontSize=12;" parent="1" vertex="1">
          <mxGeometry x="477" y="-1360" width="120" height="60" as="geometry" />
        </mxCell>
        <mxCell id="C_mojfmz8NE7oDex5nDW-117" style="edgeStyle=orthogonalEdgeStyle;rounded=0;orthogonalLoop=1;jettySize=auto;html=1;exitX=0.5;exitY=0;exitDx=0;exitDy=0;" parent="1" source="C_mojfmz8NE7oDex5nDW-116" target="C_mojfmz8NE7oDex5nDW-203" edge="1">
          <mxGeometry relative="1" as="geometry" />
        </mxCell>
        <mxCell id="C_mojfmz8NE7oDex5nDW-124" value="Store" style="edgeLabel;html=1;align=center;verticalAlign=middle;resizable=0;points=[];" parent="C_mojfmz8NE7oDex5nDW-117" vertex="1" connectable="0">
          <mxGeometry x="-0.0533" y="-1" relative="1" as="geometry">
            <mxPoint as="offset" />
          </mxGeometry>
        </mxCell>
        <mxCell id="C_mojfmz8NE7oDex5nDW-118" style="edgeStyle=orthogonalEdgeStyle;rounded=0;orthogonalLoop=1;jettySize=auto;html=1;exitX=0.75;exitY=0;exitDx=0;exitDy=0;" parent="1" source="C_mojfmz8NE7oDex5nDW-58" target="C_mojfmz8NE7oDex5nDW-61" edge="1">
          <mxGeometry relative="1" as="geometry">
            <mxPoint x="480" y="-1060" as="sourcePoint" />
            <mxPoint x="492" y="-1250" as="targetPoint" />
            <Array as="points">
              <mxPoint x="447" y="-1156" />
              <mxPoint x="492" y="-1156" />
            </Array>
          </mxGeometry>
        </mxCell>
        <mxCell id="C_mojfmz8NE7oDex5nDW-125" value="2) Build Key and&lt;br&gt;Check if exist" style="edgeLabel;html=1;align=center;verticalAlign=middle;resizable=0;points=[];" parent="C_mojfmz8NE7oDex5nDW-118" vertex="1" connectable="0">
          <mxGeometry x="-0.3246" y="-2" relative="1" as="geometry">
            <mxPoint y="-24" as="offset" />
          </mxGeometry>
        </mxCell>
        <mxCell id="C_mojfmz8NE7oDex5nDW-126" value="&lt;u&gt;&lt;font style=&quot;font-size: 24px;&quot;&gt;Get&amp;nbsp;&lt;span style=&quot;text-wrap-mode: nowrap;&quot;&gt;WeatherInfo &lt;/span&gt;&lt;span style=&quot;text-wrap-mode: nowrap;&quot;&gt;Flow&lt;/span&gt;&lt;/font&gt;&lt;/u&gt;" style="text;html=1;whiteSpace=wrap;strokeColor=none;fillColor=none;align=center;verticalAlign=middle;rounded=0;" parent="1" vertex="1">
          <mxGeometry x="310" y="-1850" width="390" height="30" as="geometry" />
        </mxCell>
        <mxCell id="C_mojfmz8NE7oDex5nDW-131" value="&lt;u style=&quot;forced-color-adjust: none; font-family: Helvetica; font-size: 12px; font-style: normal; font-variant-ligatures: normal; font-variant-caps: normal; font-weight: 400; letter-spacing: normal; orphans: 2; text-align: center; text-indent: 0px; text-transform: none; widows: 2; word-spacing: 0px; -webkit-text-stroke-width: 0px; white-space: normal; box-shadow: none !important;&quot;&gt;&lt;font style=&quot;forced-color-adjust: none; font-size: 24px; box-shadow: none !important; color: light-dark(rgb(238, 240, 255), rgb(255, 255, 255));&quot;&gt;Cache Layer&amp;nbsp;&lt;/font&gt;&lt;/u&gt;" style="text;whiteSpace=wrap;html=1;" parent="1" vertex="1">
          <mxGeometry x="-20" y="-1770" width="150" height="40" as="geometry" />
        </mxCell>
        <mxCell id="C_mojfmz8NE7oDex5nDW-228" style="edgeStyle=orthogonalEdgeStyle;rounded=0;orthogonalLoop=1;jettySize=auto;html=1;exitX=1;exitY=0.5;exitDx=0;exitDy=0;entryX=0;entryY=0.5;entryDx=0;entryDy=0;" parent="1" source="C_mojfmz8NE7oDex5nDW-139" target="C_mojfmz8NE7oDex5nDW-227" edge="1">
          <mxGeometry relative="1" as="geometry" />
        </mxCell>
        <mxCell id="C_mojfmz8NE7oDex5nDW-229" value="Remove from Hash" style="edgeLabel;html=1;align=center;verticalAlign=middle;resizable=0;points=[];" parent="C_mojfmz8NE7oDex5nDW-228" vertex="1" connectable="0">
          <mxGeometry x="-0.1833" y="-3" relative="1" as="geometry">
            <mxPoint x="13" y="-3" as="offset" />
          </mxGeometry>
        </mxCell>
        <mxCell id="C_mojfmz8NE7oDex5nDW-139" value="Linked List" style="rounded=0;whiteSpace=wrap;html=1;fontSize=12;" parent="1" vertex="1">
          <mxGeometry x="2080" y="-1635" width="260" height="60" as="geometry" />
        </mxCell>
        <mxCell id="C_mojfmz8NE7oDex5nDW-183" value="&lt;u&gt;&lt;font style=&quot;font-size: 24px;&quot;&gt;Eviction Policy&lt;span style=&quot;text-wrap-mode: nowrap;&quot;&gt;&amp;nbsp;&lt;/span&gt;&lt;span style=&quot;text-wrap-mode: nowrap;&quot;&gt;Flow&lt;/span&gt;&lt;/font&gt;&lt;/u&gt;" style="text;html=1;whiteSpace=wrap;strokeColor=none;fillColor=none;align=center;verticalAlign=middle;rounded=0;" parent="1" vertex="1">
          <mxGeometry x="2000" y="-1830" width="390" height="30" as="geometry" />
        </mxCell>
        <mxCell id="C_mojfmz8NE7oDex5nDW-184" value="&lt;u style=&quot;forced-color-adjust: none; font-family: Helvetica; font-size: 12px; font-style: normal; font-variant-ligatures: normal; font-variant-caps: normal; font-weight: 400; letter-spacing: normal; orphans: 2; text-align: center; text-indent: 0px; text-transform: none; widows: 2; word-spacing: 0px; -webkit-text-stroke-width: 0px; white-space: normal; box-shadow: none !important;&quot;&gt;&lt;font style=&quot;forced-color-adjust: none; font-size: 24px; box-shadow: none !important; color: light-dark(rgb(238, 240, 255), rgb(255, 255, 255));&quot;&gt;Cache Layer&amp;nbsp;&lt;/font&gt;&lt;/u&gt;" style="text;whiteSpace=wrap;html=1;" parent="1" vertex="1">
          <mxGeometry x="1700" y="-1760" width="150" height="40" as="geometry" />
        </mxCell>
        <mxCell id="C_mojfmz8NE7oDex5nDW-188" value="&lt;b&gt;Note&lt;/b&gt;: This process is logically separated for clarity. Physically implemented inside the Caching Layer." style="text;html=1;whiteSpace=wrap;strokeColor=none;fillColor=none;align=center;verticalAlign=middle;rounded=0;" parent="1" vertex="1">
          <mxGeometry x="2450" y="-1770" width="360" height="30" as="geometry" />
        </mxCell>
        <mxCell id="C_mojfmz8NE7oDex5nDW-192" style="edgeStyle=orthogonalEdgeStyle;rounded=0;orthogonalLoop=1;jettySize=auto;html=1;entryX=0;entryY=0.5;entryDx=0;entryDy=0;" parent="1" source="C_mojfmz8NE7oDex5nDW-191" target="C_mojfmz8NE7oDex5nDW-116" edge="1">
          <mxGeometry relative="1" as="geometry" />
        </mxCell>
        <mxCell id="C_mojfmz8NE7oDex5nDW-191" value="Compute TTL → set ExpiresAt (internal metadata)" style="rounded=0;whiteSpace=wrap;html=1;" parent="1" vertex="1">
          <mxGeometry x="305" y="-1360" width="120" height="60" as="geometry" />
        </mxCell>
        <mxCell id="C_mojfmz8NE7oDex5nDW-195" style="edgeStyle=orthogonalEdgeStyle;rounded=0;orthogonalLoop=1;jettySize=auto;html=1;exitX=1;exitY=0.5;exitDx=0;exitDy=0;entryX=0;entryY=0.5;entryDx=0;entryDy=0;" parent="1" source="C_mojfmz8NE7oDex5nDW-194" target="C_mojfmz8NE7oDex5nDW-36" edge="1">
          <mxGeometry relative="1" as="geometry">
            <Array as="points">
              <mxPoint x="100" y="-1560" />
              <mxPoint x="410" y="-1560" />
              <mxPoint x="410" y="-1660" />
            </Array>
          </mxGeometry>
        </mxCell>
        <mxCell id="C_mojfmz8NE7oDex5nDW-196" value="NO (Expired)&lt;br&gt;Remove Node from List + Hash" style="edgeLabel;html=1;align=center;verticalAlign=middle;resizable=0;points=[];" parent="C_mojfmz8NE7oDex5nDW-195" vertex="1" connectable="0">
          <mxGeometry x="-0.2351" y="1" relative="1" as="geometry">
            <mxPoint x="75" y="1" as="offset" />
          </mxGeometry>
        </mxCell>
        <mxCell id="C_mojfmz8NE7oDex5nDW-194" value="now &amp;lt; ExpiresAt ?" style="rhombus;whiteSpace=wrap;html=1;" parent="1" vertex="1">
          <mxGeometry x="-40" y="-1390" width="140" height="130" as="geometry" />
        </mxCell>
        <mxCell id="C_mojfmz8NE7oDex5nDW-199" style="edgeStyle=orthogonalEdgeStyle;rounded=0;orthogonalLoop=1;jettySize=auto;html=1;exitX=0.5;exitY=0;exitDx=0;exitDy=0;entryX=0;entryY=0.136;entryDx=0;entryDy=0;entryPerimeter=0;" parent="1" source="C_mojfmz8NE7oDex5nDW-194" target="C_mojfmz8NE7oDex5nDW-36" edge="1">
          <mxGeometry relative="1" as="geometry" />
        </mxCell>
        <mxCell id="C_mojfmz8NE7oDex5nDW-200" value="YES&amp;nbsp; -&amp;nbsp;Move Node to Head (LRU marked as MRU)" style="edgeLabel;html=1;align=center;verticalAlign=middle;resizable=0;points=[];" parent="C_mojfmz8NE7oDex5nDW-199" vertex="1" connectable="0">
          <mxGeometry x="-0.0741" relative="1" as="geometry">
            <mxPoint x="50" y="-3" as="offset" />
          </mxGeometry>
        </mxCell>
        <mxCell id="C_mojfmz8NE7oDex5nDW-202" value="" style="edgeStyle=orthogonalEdgeStyle;rounded=0;orthogonalLoop=1;jettySize=auto;html=1;" parent="1" source="C_mojfmz8NE7oDex5nDW-201" target="C_mojfmz8NE7oDex5nDW-36" edge="1">
          <mxGeometry relative="1" as="geometry" />
        </mxCell>
        <mxCell id="C_mojfmz8NE7oDex5nDW-201" value="Insert New Node at Head (MRU)" style="rounded=0;whiteSpace=wrap;html=1;" parent="1" vertex="1">
          <mxGeometry x="477" y="-1580" width="120" height="50" as="geometry" />
        </mxCell>
        <mxCell id="C_mojfmz8NE7oDex5nDW-211" style="edgeStyle=orthogonalEdgeStyle;rounded=0;orthogonalLoop=1;jettySize=auto;html=1;exitX=0.5;exitY=0;exitDx=0;exitDy=0;" parent="1" source="C_mojfmz8NE7oDex5nDW-203" target="C_mojfmz8NE7oDex5nDW-201" edge="1">
          <mxGeometry relative="1" as="geometry" />
        </mxCell>
        <mxCell id="C_mojfmz8NE7oDex5nDW-212" value="NO" style="edgeLabel;html=1;align=center;verticalAlign=middle;resizable=0;points=[];" parent="C_mojfmz8NE7oDex5nDW-211" vertex="1" connectable="0">
          <mxGeometry x="0.1333" y="-1" relative="1" as="geometry">
            <mxPoint x="-1" y="3" as="offset" />
          </mxGeometry>
        </mxCell>
        <mxCell id="C_mojfmz8NE7oDex5nDW-213" style="edgeStyle=orthogonalEdgeStyle;rounded=0;orthogonalLoop=1;jettySize=auto;html=1;exitX=0.719;exitY=1;exitDx=0;exitDy=0;entryX=1;entryY=0.5;entryDx=0;entryDy=0;exitPerimeter=0;" parent="1" source="C_mojfmz8NE7oDex5nDW-36" target="C_mojfmz8NE7oDex5nDW-201" edge="1">
          <mxGeometry relative="1" as="geometry" />
        </mxCell>
        <mxCell id="C_mojfmz8NE7oDex5nDW-203" value="Is Capacity null?" style="rhombus;whiteSpace=wrap;html=1;" parent="1" vertex="1">
          <mxGeometry x="492" y="-1490" width="90" height="90" as="geometry" />
        </mxCell>
        <mxCell id="C_mojfmz8NE7oDex5nDW-206" style="edgeStyle=orthogonalEdgeStyle;rounded=0;orthogonalLoop=1;jettySize=auto;html=1;exitX=1;exitY=0.5;exitDx=0;exitDy=0;entryX=0.722;entryY=0.967;entryDx=0;entryDy=0;entryPerimeter=0;" parent="1" source="C_mojfmz8NE7oDex5nDW-203" target="C_mojfmz8NE7oDex5nDW-36" edge="1">
          <mxGeometry relative="1" as="geometry" />
        </mxCell>
        <mxCell id="C_mojfmz8NE7oDex5nDW-207" value="YES - Evict Tail (LRU)" style="edgeLabel;html=1;align=center;verticalAlign=middle;resizable=0;points=[];" parent="C_mojfmz8NE7oDex5nDW-206" vertex="1" connectable="0">
          <mxGeometry x="-0.7274" y="2" relative="1" as="geometry">
            <mxPoint x="44" y="-23" as="offset" />
          </mxGeometry>
        </mxCell>
        <mxCell id="C_mojfmz8NE7oDex5nDW-218" style="edgeStyle=orthogonalEdgeStyle;rounded=0;orthogonalLoop=1;jettySize=auto;html=1;entryX=0.5;entryY=0;entryDx=0;entryDy=0;" parent="1" source="C_mojfmz8NE7oDex5nDW-215" target="C_mojfmz8NE7oDex5nDW-217" edge="1">
          <mxGeometry relative="1" as="geometry" />
        </mxCell>
        <mxCell id="C_mojfmz8NE7oDex5nDW-215" value="" style="verticalLabelPosition=bottom;shadow=0;dashed=0;align=center;html=1;verticalAlign=top;shape=mxgraph.electrical.logic_gates.schmitt_trigger;" parent="1" vertex="1">
          <mxGeometry x="1800" y="-1575" width="100" height="60" as="geometry" />
        </mxCell>
        <mxCell id="C_mojfmz8NE7oDex5nDW-216" value="On Insert" style="text;html=1;whiteSpace=wrap;strokeColor=none;fillColor=none;align=center;verticalAlign=middle;rounded=0;" parent="1" vertex="1">
          <mxGeometry x="1730" y="-1560" width="60" height="30" as="geometry" />
        </mxCell>
        <mxCell id="C_mojfmz8NE7oDex5nDW-220" style="edgeStyle=orthogonalEdgeStyle;rounded=0;orthogonalLoop=1;jettySize=auto;html=1;exitX=0;exitY=0.5;exitDx=0;exitDy=0;" parent="1" source="C_mojfmz8NE7oDex5nDW-217" target="C_mojfmz8NE7oDex5nDW-219" edge="1">
          <mxGeometry relative="1" as="geometry" />
        </mxCell>
        <mxCell id="C_mojfmz8NE7oDex5nDW-223" value="NO" style="edgeLabel;html=1;align=center;verticalAlign=middle;resizable=0;points=[];" parent="C_mojfmz8NE7oDex5nDW-220" vertex="1" connectable="0">
          <mxGeometry x="0.1556" y="2" relative="1" as="geometry">
            <mxPoint as="offset" />
          </mxGeometry>
        </mxCell>
        <mxCell id="C_mojfmz8NE7oDex5nDW-217" value="CurrentSize &amp;gt; MaxCapacity&amp;nbsp;" style="rhombus;whiteSpace=wrap;html=1;" parent="1" vertex="1">
          <mxGeometry x="1960" y="-1475" width="140" height="130" as="geometry" />
        </mxCell>
        <mxCell id="C_mojfmz8NE7oDex5nDW-219" value="" style="ellipse;html=1;shape=endState;fillColor=#000000;strokeColor=#ff0000;" parent="1" vertex="1">
          <mxGeometry x="1840" y="-1425" width="30" height="30" as="geometry" />
        </mxCell>
        <mxCell id="C_mojfmz8NE7oDex5nDW-221" value="Finish" style="text;html=1;whiteSpace=wrap;strokeColor=none;fillColor=none;align=center;verticalAlign=middle;rounded=0;" parent="1" vertex="1">
          <mxGeometry x="1820" y="-1395" width="60" height="30" as="geometry" />
        </mxCell>
        <mxCell id="C_mojfmz8NE7oDex5nDW-224" style="edgeStyle=orthogonalEdgeStyle;rounded=0;orthogonalLoop=1;jettySize=auto;html=1;exitX=1;exitY=0.5;exitDx=0;exitDy=0;entryX=0.435;entryY=1.033;entryDx=0;entryDy=0;entryPerimeter=0;" parent="1" source="C_mojfmz8NE7oDex5nDW-217" target="C_mojfmz8NE7oDex5nDW-139" edge="1">
          <mxGeometry relative="1" as="geometry" />
        </mxCell>
        <mxCell id="C_mojfmz8NE7oDex5nDW-225" value="YES -&amp;nbsp;Evict Tail (Least Recently Used)" style="edgeLabel;html=1;align=center;verticalAlign=middle;resizable=0;points=[];" parent="C_mojfmz8NE7oDex5nDW-224" vertex="1" connectable="0">
          <mxGeometry x="0.5797" y="-2" relative="1" as="geometry">
            <mxPoint as="offset" />
          </mxGeometry>
        </mxCell>
        <mxCell id="C_mojfmz8NE7oDex5nDW-227" value="Hash Map" style="rounded=0;whiteSpace=wrap;html=1;fontSize=12;" parent="1" vertex="1">
          <mxGeometry x="2480" y="-1635" width="260" height="60" as="geometry" />
        </mxCell>
        <mxCell id="C_mojfmz8NE7oDex5nDW-235" style="edgeStyle=orthogonalEdgeStyle;rounded=0;orthogonalLoop=1;jettySize=auto;html=1;exitX=1;exitY=0.5;exitDx=0;exitDy=0;exitPerimeter=0;entryX=0;entryY=0.5;entryDx=0;entryDy=0;" parent="1" source="C_mojfmz8NE7oDex5nDW-230" target="C_mojfmz8NE7oDex5nDW-234" edge="1">
          <mxGeometry relative="1" as="geometry" />
        </mxCell>
        <mxCell id="C_mojfmz8NE7oDex5nDW-237" value="For Each Entry:" style="edgeLabel;html=1;align=center;verticalAlign=middle;resizable=0;points=[];" parent="C_mojfmz8NE7oDex5nDW-235" vertex="1" connectable="0">
          <mxGeometry x="-0.1429" y="-1" relative="1" as="geometry">
            <mxPoint y="1" as="offset" />
          </mxGeometry>
        </mxCell>
        <mxCell id="C_mojfmz8NE7oDex5nDW-230" value="" style="verticalLabelPosition=bottom;shadow=0;dashed=0;align=center;html=1;verticalAlign=top;shape=mxgraph.electrical.logic_gates.schmitt_trigger;" parent="1" vertex="1">
          <mxGeometry x="1770" y="-1214" width="100" height="60" as="geometry" />
        </mxCell>
        <mxCell id="C_mojfmz8NE7oDex5nDW-231" value="CRON Job: Every 1 hour" style="text;html=1;whiteSpace=wrap;strokeColor=none;fillColor=none;align=center;verticalAlign=middle;rounded=0;" parent="1" vertex="1">
          <mxGeometry x="1680" y="-1224" width="90" height="70" as="geometry" />
        </mxCell>
        <mxCell id="C_mojfmz8NE7oDex5nDW-234" value="now ≥ ExpiresAt ?" style="rhombus;whiteSpace=wrap;html=1;" parent="1" vertex="1">
          <mxGeometry x="2020" y="-1249" width="140" height="130" as="geometry" />
        </mxCell>
        <mxCell id="C_mojfmz8NE7oDex5nDW-238" style="edgeStyle=orthogonalEdgeStyle;rounded=0;orthogonalLoop=1;jettySize=auto;html=1;exitX=1;exitY=0.5;exitDx=0;exitDy=0;entryX=0.931;entryY=0.983;entryDx=0;entryDy=0;entryPerimeter=0;" parent="1" source="C_mojfmz8NE7oDex5nDW-234" target="C_mojfmz8NE7oDex5nDW-139" edge="1">
          <mxGeometry relative="1" as="geometry" />
        </mxCell>
        <mxCell id="C_mojfmz8NE7oDex5nDW-239" value="Text" style="edgeLabel;html=1;align=center;verticalAlign=middle;resizable=0;points=[];" parent="C_mojfmz8NE7oDex5nDW-238" vertex="1" connectable="0">
          <mxGeometry x="0.2708" y="-2" relative="1" as="geometry">
            <mxPoint as="offset" />
          </mxGeometry>
        </mxCell>
        <mxCell id="1WUKrTZ1wG0lh8lpJfil-1" value="&amp;nbsp;Yes - Remove Node from List + Hash" style="edgeLabel;html=1;align=center;verticalAlign=middle;resizable=0;points=[];" vertex="1" connectable="0" parent="C_mojfmz8NE7oDex5nDW-238">
          <mxGeometry x="0.2636" y="-6" relative="1" as="geometry">
            <mxPoint as="offset" />
          </mxGeometry>
        </mxCell>
      </root>
    </mxGraphModel>
  </diagram>
</mxfile>
